<mxfile host="app.diagrams.net" modified="2020-11-08T06:37:00.460Z" agent="5.0 (Windows NT 10.0; Win64; x64) AppleWebKit/537.36 (KHTML, like Gecko) Chrome/80.0.3987.163 Safari/537.36" etag="PieiZtf_3_ZVqgLUr5OK" version="13.9.2" type="github">
  <diagram id="J0FrVajbmznYr0VN9MTB" name="Page-1">
    <mxGraphModel dx="1038" dy="549" grid="1" gridSize="10" guides="1" tooltips="1" connect="1" arrows="1" fold="1" page="1" pageScale="1" pageWidth="827" pageHeight="1169" math="0" shadow="0">
      <root>
        <mxCell id="0" />
        <mxCell id="1" parent="0" />
        <mxCell id="OJBPOgNgsKjbPe3hehF9-1" value="&lt;font style=&quot;font-size: 24px&quot;&gt;今天&lt;/font&gt;" style="rounded=0;whiteSpace=wrap;html=1;" vertex="1" parent="1">
          <mxGeometry x="170" y="110" width="70" height="30" as="geometry" />
        </mxCell>
        <mxCell id="OJBPOgNgsKjbPe3hehF9-2" value="" style="rounded=1;whiteSpace=wrap;html=1;" vertex="1" parent="1">
          <mxGeometry x="294" y="260" width="120" height="60" as="geometry" />
        </mxCell>
        <mxCell id="OJBPOgNgsKjbPe3hehF9-3" value="" style="endArrow=classic;html=1;exitX=0.5;exitY=1;exitDx=0;exitDy=0;entryX=0;entryY=0.5;entryDx=0;entryDy=0;" edge="1" parent="1" source="OJBPOgNgsKjbPe3hehF9-1" target="OJBPOgNgsKjbPe3hehF9-2">
          <mxGeometry width="50" height="50" relative="1" as="geometry">
            <mxPoint x="180" y="240" as="sourcePoint" />
            <mxPoint x="230" y="190" as="targetPoint" />
            <Array as="points">
              <mxPoint x="205" y="290" />
            </Array>
          </mxGeometry>
        </mxCell>
        <mxCell id="OJBPOgNgsKjbPe3hehF9-4" value="" style="endArrow=classic;html=1;exitX=1;exitY=0.5;exitDx=0;exitDy=0;entryX=0.5;entryY=0;entryDx=0;entryDy=0;" edge="1" parent="1" source="OJBPOgNgsKjbPe3hehF9-1" target="OJBPOgNgsKjbPe3hehF9-2">
          <mxGeometry relative="1" as="geometry">
            <mxPoint x="280" y="139" as="sourcePoint" />
            <mxPoint x="380" y="139" as="targetPoint" />
            <Array as="points">
              <mxPoint x="354" y="125" />
            </Array>
          </mxGeometry>
        </mxCell>
        <mxCell id="OJBPOgNgsKjbPe3hehF9-5" value="Label" style="edgeLabel;resizable=0;html=1;align=center;verticalAlign=middle;" connectable="0" vertex="1" parent="OJBPOgNgsKjbPe3hehF9-4">
          <mxGeometry relative="1" as="geometry" />
        </mxCell>
      </root>
    </mxGraphModel>
  </diagram>
</mxfile>
